<?xml version="1.0" encoding="UTF-8"?>
<svg version="1.1" xmlns="http://www.w3.org/2000/svg" viewBox="0 1100 4000 1700" width="4000" height="4000">
<path d="M0 0 C0.89541504 0.03706055 1.79083008 0.07412109 2.71337891 0.11230469 C3.71546387 0.17836914 4.71754883 0.24443359 5.75 0.3125 C6.82813965 0.37083008 7.9062793 0.42916016 9.01708984 0.48925781 C98.52938319 5.85338211 187.42896642 22.54073971 344.48242188 74.97216797 C347.89423468 76.37166381 351.31394119 77.75062819 354.734375 79.12890625 C395.06415441 95.48297824 434.96210832 113.96835211 472.51269531 136.01025391 C475.26203547 137.61053549 478.04205905 139.15030697 480.82739258 140.68676758 C506.74571137 155.02000927 531.76336451 171.23464189 556.06201172 188.14599609 C557.61335276 189.21806833 559.18097333 190.26648222 560.75 191.3125 C561.84087064 193.91865639 562.77288299 196.45468319 563.6484375 199.1328125 C564.20907104 200.78371725 564.76978414 202.43459498 565.33056641 204.08544922 C565.62263977 204.95780212 565.91471313 205.83015503 566.21563721 206.72894287 C579.92395737 247.55947674 597.5687587 286.29203799 617.75 324.3125 C622.61965981 323.68354198 626.48118531 321.60269647 630.8125 319.4375 C663.43770023 303.63996727 698.5280266 292.60726243 733.75 284.3125 C734.77786621 284.06806152 735.80573242 283.82362305 736.86474609 283.57177734 C815.04378968 265.28176598 897.63051992 267.25968478 1004.75 293.3125 C1005.36385559 293.50479187 1005.97771118 293.69708374 1006.61016846 293.89520264 C1045.30181628 306.05206225 1082.90335344 321.43239445 1117.75 342.3125 C1119.09263916 343.11469971 1119.09263916 343.11469971 1120.46240234 343.93310547 C1144.60410041 358.43729476 1168.06066 374.37720062 1189.22705078 392.99560547 C1191.49580182 394.957395 1193.84265132 396.81781889 1196.1875 398.6875 C1207.72273763 408.10265777 1218.21561856 418.68537094 1228.75 429.1875 C1229.24463745 429.67945862 1229.7392749 430.17141724 1230.24890137 430.67828369 C1235.96983941 436.37568759 1241.52400579 442.15442806 1246.75 448.3125 C1247.71128743 449.41879682 1248.67349501 450.52429491 1249.63671875 451.62890625 C1310.25383244 521.7057529 1351.60671815 606.34258688 1375.75 740.3125 C1375.91773926 741.75399414 1375.91773926 741.75399414 1376.08886719 743.22460938 C1386.13362728 831.7579207 1371.60387539 925.48858833 1267.31396484 1121.35058594 C1264.06279304 1125.429015 1260.68453101 1129.39603791 1257.28125 1133.34765625 C1254.96141634 1136.06486882 1252.72556534 1138.83058681 1250.5 1141.625 C1240.87659671 1153.39633338 1230.03607929 1164.11675226 1219.3125 1174.875 C1218.38928955 1175.8028833 1217.4660791 1176.7307666 1216.51489258 1177.68676758 C1211.41964557 1182.77002902 1206.22762784 1187.64560546 1200.75 1192.3125 C1199.66679376 1193.26168161 1198.58471255 1194.21214904 1197.50390625 1195.1640625 C1189.23223749 1202.37829554 1180.65997457 1209.11623268 1171.88476562 1215.70556641 C1169.79627639 1217.27766569 1167.71743916 1218.86174023 1165.640625 1220.44921875 C1156.90400533 1227.10463228 1147.99961259 1233.39085851 1138.75 1239.3125 C1137.98623047 1239.80331055 1137.22246094 1240.29412109 1136.43554688 1240.79980469 C1122.5703071 1249.66582454 1108.33245742 1257.69049161 1093.75 1265.3125 C1092.77160156 1265.82699707 1091.79320312 1266.34149414 1090.78515625 1266.87158203 C1075.16639077 1275.04135793 1059.20699797 1282.00897391 1042.75 1288.3125 C1041.64205078 1288.73772949 1040.53410156 1289.16295898 1039.39257812 1289.60107422 C995.46445014 1306.27606851 949.24526427 1317.34616739 902.39282227 1321.23706055 C901.29897217 1321.33672119 900.20512207 1321.43638184 899.078125 1321.5390625 C898.1180957 1321.61721191 897.15806641 1321.69536133 896.16894531 1321.77587891 C893.31298207 1322.40944847 892.49233655 1322.99212811 890.75 1325.3125 C889.74682919 1327.08163868 888.81203942 1328.89014106 887.921875 1330.71875 C887.37700439 1331.83709229 886.83213379 1332.95543457 886.27075195 1334.10766602 C885.67965029 1335.34220357 885.08942628 1336.57716166 884.5 1337.8125 C884.04480484 1338.76055008 884.04480484 1338.76055008 883.58041382 1339.72775269 C871.44676057 1365.04671344 860.64094004 1391.04271659 850.75 1417.3125 C850.37935425 1418.29682007 850.37935425 1418.29682007 850.0012207 1419.30102539 C834.25488165 1461.20668537 820.12240682 1504.19723726 810.63696289 1547.99414062 C810.4280542 1548.92548828 810.21914551 1549.85683594 810.00390625 1550.81640625 C809.83189697 1551.61892822 809.6598877 1552.4214502 809.48266602 1553.24829102 C808.63502827 1555.63642067 807.75209714 1556.77289805 805.75 1558.3125 C727.2531594 1560.24089059 631.61964961 1518.49537948 535.75 1479.3125 C534.65333008 1478.83216309 533.55666016 1478.35182617 532.42675781 1477.85693359 C524.51606462 1474.38287167 516.62841384 1470.85906784 508.75 1467.3125 C507.6681543 1466.82716797 506.58630859 1466.34183594 505.47167969 1465.84179688 C494.54500091 1460.93189525 483.7264907 1455.95626048 473.22265625 1450.19140625 C469.58454059 1448.22297697 465.89958756 1446.38542909 462.1875 1444.5625 C439.50560133 1433.3430758 417.30078097 1420.74470559 395.72753906 1407.52294922 C394.32520889 1406.66458465 392.92068359 1405.80980165 391.51464844 1404.95751953 C352.76524224 1381.46322579 315.85044146 1355.14184954 280.28515625 1327.09375 C277.94655348 1325.25023647 275.60009332 1323.41755765 273.24609375 1321.59375 C266.61073125 1316.44124838 260.1350165 1311.15143737 253.78686523 1305.64819336 C250.35007964 1302.67048169 246.86616585 1299.77622716 243.3125 1296.9375 C238.05662619 1292.67682123 233.13493497 1288.09934621 228.22680664 1283.44775391 C225.19267521 1280.57443926 222.13213911 1277.75237937 218.97314453 1275.01635742 C205.86336416 1263.57412883 193.54834338 1251.27170323 181.26489258 1238.95776367 C178.66277179 1236.35022025 176.05526247 1233.74814936 173.44726562 1231.14648438 C171.76530383 1229.46386265 170.08365179 1227.78093122 168.40234375 1226.09765625 C167.63558823 1225.33292496 166.8688327 1224.56819366 166.07884216 1223.7802887 C161.99843278 1219.68222704 158.07554332 1215.50427569 154.31199646 1211.11260986 C151.59752431 1207.98433895 148.72368567 1205.00552342 145.875 1202 C140.90683593 1196.72066642 136.17392837 1191.35597723 131.65625 1185.68359375 C129.91441811 1183.51701187 128.10501896 1181.44439615 126.25 1179.375 C123.09663874 1175.51213245 123.09663874 1175.51213245 122.75 1172.3125 C123.37988281 1169.48535156 123.37988281 1169.48535156 124.453125 1166.203125 C124.85063965 1164.9855249 125.2481543 1163.7679248 125.65771484 1162.51342773 C126.10354277 1161.19590917 126.55101151 1159.87894485 127 1158.5625 C127.22552551 1157.89388947 127.45105103 1157.22527893 127.68341064 1156.53640747 C138.56307657 1124.43369084 155.26632551 1096.14770147 175.75 1069.3125 C176.93907174 1067.73034669 178.12677379 1066.14716213 179.3125 1064.5625 C180.125 1063.47916667 180.9375 1062.39583333 181.75 1061.3125 C181.15848145 1061.0431665 180.56696289 1060.77383301 179.95751953 1060.49633789 C177.75247015 1059.31382468 176.23358441 1058.09187778 174.4296875 1056.37109375 C173.8109375 1055.78650391 173.1921875 1055.20191406 172.5546875 1054.59960938 C171.91789063 1053.98923828 171.28109375 1053.37886719 170.625 1052.75 C169.37337482 1051.56016724 168.12075117 1050.37138402 166.8671875 1049.18359375 C165.86764038 1048.23480347 165.86764038 1048.23480347 164.84790039 1047.2668457 C162.72030642 1045.28483829 160.54610673 1043.36620825 158.36328125 1041.4453125 C151.11673378 1034.94819311 144.29726924 1028.00873894 137.42651367 1021.11938477 C135.0608581 1018.74835437 132.68988486 1016.38273578 130.31835938 1014.01757812 C128.79134583 1012.48990396 127.26464243 1010.96191972 125.73828125 1009.43359375 C125.04019852 1008.73753525 124.34211578 1008.04147675 123.62287903 1007.32432556 C119.68215919 1003.36500803 115.91402767 999.30743776 112.27125549 995.0718689 C110.03605675 992.4868073 107.70427291 990.00064585 105.375 987.5 C101.08569297 982.85692811 97.02321381 978.07808383 93.05859375 973.15234375 C90.97916657 970.59440202 88.85961443 968.08125494 86.71582031 965.57763672 C81.35237193 959.30908309 76.23247931 952.89703721 71.26904297 946.30419922 C69.4543022 943.92479466 67.60338203 941.57515475 65.75390625 939.22265625 C64.35628529 937.4196471 62.95914966 935.61626164 61.5625 933.8125 C60.53527832 932.52073853 60.53527832 932.52073853 59.48730469 931.20288086 C58.85856445 930.38311768 58.22982422 929.56335449 57.58203125 928.71875 C57.01202393 927.98978516 56.4420166 927.26082031 55.85473633 926.50976562 C54.75 924.3125 54.75 924.3125 54.92700195 921.69824219 C56.11013546 918.2685238 58.44698563 916.36260714 61.125 914.0625 C61.66809814 913.58143799 62.21119629 913.10037598 62.77075195 912.60473633 C66.98049537 908.90322376 71.2920471 905.32629178 75.65625 901.80859375 C78.70991947 899.3448377 81.73973587 896.85448599 84.76513672 894.35620117 C87.69734676 891.93510124 90.63413993 889.51959634 93.57128906 887.10449219 C94.9879629 885.93927636 96.40401315 884.77330181 97.81933594 883.60644531 C105.61940742 877.18130169 113.50365834 870.91896225 121.6184082 864.89526367 C126.63554539 861.16722245 131.57788229 857.35241899 136.5 853.5 C155.17763148 838.91100427 174.20800042 824.7542528 193.79101562 811.40087891 C197.85996983 808.62430971 201.88955684 805.79967491 205.89819336 802.93676758 C215.09408255 796.37712587 224.49186195 790.1745194 234 784.078125 C236.8690762 782.23604767 239.7316217 780.38410148 242.59375 778.53125 C262.28019707 765.81942087 282.26976648 753.63808938 302.5 741.8125 C303.47928467 741.23717529 304.45856934 740.66185059 305.4675293 740.0690918 C309.83609648 737.51874689 314.21024185 735.04170584 318.7265625 732.76171875 C319.47711914 732.37371094 320.22767578 731.98570312 321.00097656 731.5859375 C322.35635979 730.89297835 323.72486164 730.22473114 325.10839844 729.58984375 C327.57236726 728.32089308 329.41199325 727.1058293 330.51953125 724.50634766 C331.08189026 722.1146871 331.42866937 719.7484007 331.75 717.3125 C332.10415739 715.2699218 332.46391323 713.22830939 332.828125 711.1875 C333.01608643 710.08212891 333.20404785 708.97675781 333.39770508 707.83789062 C346.02734726 633.91327243 374.38443899 563.78552219 416.4609375 501.7421875 C418.99087943 497.99486319 421.37512332 494.1593768 423.75 490.3125 C422.53775757 489.85363403 422.53775757 489.85363403 421.30102539 489.38549805 C350.25005529 462.40672389 284.07763322 427.0706904 224.75 379.3125 C223.7496875 378.50941406 222.749375 377.70632813 221.71875 376.87890625 C216.36215675 372.53091205 211.16266842 368.05609092 206.0625 363.41015625 C204.08615628 361.61742554 202.0854327 359.86454773 200.0625 358.125 C189.4077337 348.79944217 179.27181868 338.93397615 169.25 328.9375 C168.31849121 328.0105835 167.38698242 327.08366699 166.42724609 326.12866211 C161.87115766 321.56230667 157.44327869 316.94719806 153.24316406 312.05078125 C151.1782197 309.64685649 149.02523317 307.32760931 146.875 305 C142.76540154 300.49309897 138.85741592 295.86661375 135.02734375 291.12109375 C132.65626009 288.19689281 130.23780169 285.31683633 127.8125 282.4375 C114.53798141 266.51215589 102.01627185 249.7144924 90.75 232.3125 C89.77952999 230.84446721 88.80809227 229.3770739 87.8359375 227.91015625 C75.60751943 209.38365712 64.53572653 190.27014082 54.04443359 170.71337891 C52.92536755 168.63776678 51.79072837 166.57241702 50.64453125 164.51171875 C29.08714702 125.26394498 13.49700747 82.07488406 1.1875 39.125 C0.93338348 38.2418512 0.67926697 37.35870239 0.41744995 36.4487915 C-2.01234552 27.96022471 -4.35643689 19.44421585 -6.27734375 10.82421875 C-6.67360962 9.07371216 -6.67360962 9.07371216 -7.07788086 7.2878418 C-7.25 4.3125 -7.25 4.3125 -6.07641602 1.92504883 C-3.82885078 -0.05933406 -2.96007447 -0.14599007 0 0 Z " fill="#000000" transform="translate(206.25,1220.6875)"/>
<path d="M0 0 C1.11152939 0.00415421 1.11152939 0.00415421 2.24551392 0.00839233 C18.61192599 0.07998258 34.13539401 1.56754529 50.125 5.25 C50.81045898 5.40275391 51.49591797 5.55550781 52.20214844 5.71289062 C94.32093084 15.24993562 133.54530417 37.0095409 165.125 66.25 C166.59453125 67.56484375 166.59453125 67.56484375 168.09375 68.90625 C187.27586428 86.08535156 203.43809344 107.25006804 213.125 131.25 C213.4653125 132.09175781 213.805625 132.93351562 214.15625 133.80078125 C218.34290052 146.26381959 217.94812679 162.45816826 212.125 174.25 C204.41245315 189.09665268 189.45292119 197.85330459 174.0390625 203.04296875 C169.10744527 204.59946234 164.13059592 205.95448558 159.125 207.25 C157.95066406 207.56710938 156.77632812 207.88421875 155.56640625 208.2109375 C136.21833531 213.0902263 115.79548788 213.48092127 95.9375 213.5 C95.10161346 213.50133942 94.26572693 213.50267883 93.4045105 213.50405884 C75.20003799 213.49782494 57.21895024 212.15144371 39.125 210.25 C37.37533936 210.07380127 37.37533936 210.07380127 35.59033203 209.89404297 C2.16663054 206.4694221 -30.21265089 197.1278999 -59.875 181.25 C-60.47795898 180.92918457 -61.08091797 180.60836914 -61.70214844 180.27783203 C-74.80343081 173.24116401 -86.48397833 164.94242838 -97.25390625 154.6953125 C-99.80304052 152.24660626 -99.80304052 152.24660626 -102.44921875 150.234375 C-114.12505568 140.68312676 -122.80119397 125.25290563 -127.875 111.25 C-128.18179688 110.45980469 -128.48859375 109.66960937 -128.8046875 108.85546875 C-130.83041482 103.34741971 -131.58023179 98.09483259 -131.875 92.25 C-131.95105469 91.27289062 -132.02710938 90.29578125 -132.10546875 89.2890625 C-132.89342364 72.03923917 -124.98869893 55.5262307 -113.5625 42.9375 C-84.2104195 12.04560523 -41.62164952 -0.30688287 0 0 Z " fill="#EAEAEA" transform="translate(895.875,1914.75)"/>
<path d="M0 0 C179.45535714 0 179.45535714 0 226 39 C226.9178125 39.763125 227.835625 40.52625 228.78125 41.3125 C234.94931102 46.6429231 240.04797859 52.53810637 245 59 C245.67933594 59.87527344 246.35867187 60.75054688 247.05859375 61.65234375 C261.83336095 81.26563121 270.9475491 103.86022051 275 128 C275.17660156 128.94746094 275.35320313 129.89492187 275.53515625 130.87109375 C281.03592346 167.89726632 271.80420263 207.19598208 249.8203125 237.5546875 C249.21960937 238.36164063 248.61890625 239.16859375 248 240 C247.44054688 240.76570313 246.88109375 241.53140625 246.3046875 242.3203125 C224.8849273 270.4163616 193.81719295 288.8185445 160 298 C158.91074219 298.29648438 157.82148438 298.59296875 156.69921875 298.8984375 C109.94583871 310.20883602 33.87098981 303 0 303 C0 203.01 0 103.02 0 0 Z M63 56 C63 118.7 63 181.4 63 246 C129.86460063 248.73503056 129.86460063 248.73503056 184 219 C197.33957979 204.61826554 206.62899275 187.36306563 210 168 C210.3403125 166.081875 210.3403125 166.081875 210.6875 164.125 C213.42208016 137.00708004 206.23723823 111.01106628 189.2019043 89.85791016 C171.4274572 68.57731249 148.07254394 59.38406799 121 56 C101.86 56 82.72 56 63 56 Z " fill="#000000" transform="translate(2380,1592)"/>
<path d="M0 0 C26.52375 -0.061875 53.0475 -0.12375 80.375 -0.1875 C92.89381104 -0.22846802 92.89381104 -0.22846802 105.66552734 -0.27026367 C115.9309082 -0.28381348 115.9309082 -0.28381348 120.75088501 -0.28633118 C124.08598942 -0.28910333 127.42094762 -0.30025355 130.75601196 -0.31672668 C167.96288143 -0.52420894 167.96288143 -0.52420894 185.25 5.6875 C198.70093995 10.52340009 208.89343891 16.2183689 218 24 C232.75774435 35.46342343 241.0871106 52.10727541 244 68 C247.34498093 89.22047643 243.3374969 109.23499303 232 125 C223 135 223 135 210 146 C212.88513738 148.24399574 215.86138263 150.13177537 219 152 C235.69494007 162.60986846 248.0912971 178.51349994 253.9375 197.5 C258.76681003 219.90679873 253.65766124 242.81024305 241.92578125 262.12890625 C227.8388929 283.13065663 204.09576805 295.43513805 179.79492188 300.3581543 C167.59946345 302.69503476 155.54762955 303.14500243 143.15551758 303.11352539 C125.66667938 303.10128021 125.66667938 303.10128021 78.8125 303.0625 C52.804375 303.041875 26.79625 303.02125 0 303 C0 202.34 0 102.68 0 0 Z M63 54 C63 81.06 63 108.12 63 136 C148.78780094 136.31831519 165.84053348 135.74373089 180 122 C187.66879675 113.18491994 189.65259311 102.94351141 189.33984375 91.484375 C186.40902563 72.5402534 177 65 177 65 C165.85292034 55.88572111 153.28359624 53.8207946 139.2890625 53.88647461 C129.625 53.90234375 129.625 53.90234375 63 54 Z M63 173 C63 198.41 63 223.82 63 250 C167.19462006 250.51571888 182 249 182 237 C189.49258637 228.03595762 191.6363907 219.28229179 191.3359375 207.71484375 C190.37480109 197.08646324 185.77567083 190.1417143 178 183 C168.25394115 174.99921124 155.39830545 172.83214756 143.14892578 172.88647461 C63 173 63 173 63 173 Z " fill="#000000" transform="translate(1769,1592)"/>
<path d="M0 0 C76.89 0 153.78 0 233 0 C233 18.15 233 36.3 233 55 C177.23 55 121.46 55 64 55 C64 77.44 64 99.88 64 123 C100.63 123 137.26 123 175 123 C175 140.82 175 158.64 175 177 C138.37 177 101.74 177 64 177 C64 200.43 64 223.86 64 248 C120.43 248 176.86 248 235 248 C235 266.15 235 284.3 235 303 C157.45 303 79.9 303 0 303 C0 203.01 0 103.02 0 0 Z " fill="#000000" transform="translate(3041,1592)"/>
<path d="M0 0 C0.86818359 0.18272461 1.73636719 0.36544922 2.63085938 0.55371094 C44.70655174 9.8310812 78.54233706 35.50321904 102 71 C117.10436399 94.32098086 124.27752173 121.49856304 125 146 C125.40906534 163.93786558 123.69557316 178.76880161 120 193 C113.0452197 218.2971935 101.70208837 238.1629549 87 255 C70.48294349 273.85321049 53.97092055 285.13926212 34.90234375 294.10205078 C-0.34119733 310.66609341 -38.79940804 313.32224741 -71 306 C-103.90421673 298.72240483 -129.63014401 283.58659773 -152 262 C-179.83649277 236.2545766 -194.51128864 196.84220374 -196.12548828 162.31591797 C-197.57606702 119.28694175 -184.5361471 78.9059285 -154.94799805 47.15625 C-111.90668065 2.38154981 -51.2939124 -10.88842628 0 0 Z M-107.73046875 87 C-122.10387048 104.32811704 -129.26903057 124.76185112 -131 147 C-132.23544377 176.60705401 -122.55157603 202.20710842 -104.40625 221.80078125 C-86.06248794 241.08307653 -62.03085821 250.37312444 -35.6875 251.3125 C-6.64654438 250.57232572 16.70316798 239.1372737 36.4921875 218.38671875 C63.19921837 153.69063729 59.84422809 124.60557971 46.80126953 101.91455078 C23.23014462 69.64268009 -0.62928336 58.64234534 -21.74609375 55.47265625 C-53.78144246 51.50494091 -86.16123818 62.48554141 -107.73046875 87 Z " fill="#000000" transform="translate(2540,1967)"/>
<path d="M0 0 C21.12 0 42.24 0 64 0 C64 303 64 303 64 303 C63 303 0 303 0 303 C0 202.34 0 102.68 0 0 Z M63 54 C63 80.73 63 107.46 63 135 C144.63494682 135.32687616 163.6185867 135.02398944 178.09204102 121.22973633 C185.36371875 113.87147628 188.26549805 105.04318372 188.375 94.75 C185.2696972 75.24201053 177.76953125 67.78125 177.76953125 67.78125 C170.87588347 61.35691258 164.73135176 56.77754788 155.30102539 55.26831055 C144.13842028 53.54176305 135.20688581 53.6236355 126.18359375 53.70703125 C63 54 63 54 63 54 Z M63 173 C63 198.41 63 223.82 63 250 C152.96914567 250.45153809 168.88254688 249.22122962 182 237 C191.3359375 207.71484375 191.3359375 207.71484375 178 183 C168.25394115 174.99921124 155.39830545 172.83214756 143.14892578 172.88647461 C63 173 63 173 63 173 Z " fill="#000000" transform="translate(1769,1969)"/>
<path d="M0 0 C88.11 0 176.22 0 267 0 C267 18.48 267 36.96 267 56 C233.34 56 199.68 56 165 56 C165 137.51 165 219.02 165 303 C144.21 303 123.42 303 102 303 C102 221.49 102 139.98 102 56 C68.34 56 34.68 56 0 56 C0 37.52 0 19.04 0 0 Z " fill="#000000" transform="translate(3300,1592)"/>
<path d="M0 0 C21.12 0 42.24 0 64 0 C269 303 269 303 269 303 C246.57 303 224.14 302 202 302 C190.71638301 280.56112771 190.71638301 280.56112771 172.5 270 C152.33226295 230.09774564 152.33226295 230.09774564 134.93164062 196.68359375 C131 187 131 187 131 187 C108.56 187 86.12 187 63 187 C63 224.95 63 262.9 63 302 C42.21 302 21.42 302 0 302 C0 202.34 0 102.68 0 0 Z M63 54 C63 81.06 63 108.12 63 136 C178.09204102 136.32687616 178.09204102 136.32687616 189.33984375 91.484375 C184.08902563 72.5402534 177 65 177 65 C153.28359624 53.8207946 139.2890625 53.88647461 139.2890625 53.88647461 C63 54 63 54 63 54 Z " fill="#000000" transform="translate(2063,1969)"/>
</svg>
